<?xml version="1.0" encoding="UTF-8"?>
<svg id="Layer_1" data-name="Layer 1" xmlns="http://www.w3.org/2000/svg" viewBox="0 0 1190.551 841.89">
  <defs>
    <style>
      .cls-1 {
        fill: #034931;
        stroke-width: 0px;
      }
    </style>
  </defs>
  <path class="cls-1" d="M545.734,339.472c19.747,14.702,37.105,27.624,55.498,41.317,0-10.465.527-20.103-.29-29.626-.28-3.262-3.326-7.004-6.142-9.207-12.143-9.5-24.578-18.636-37.089-27.653-8.233-5.934-12.265-13.521-12.041-23.807.332-15.261.086-30.535.086-48.576,19.535,14.545,36.87,27.451,54.204,40.358,1.117-.256,2.233-.512,3.35-.768-2.782-9.412-4.241-19.493-8.599-28.107-12.124-23.962-6.862-50.876,15.032-70.073,23.257,18.647,28.439,47.569,13.701,72.762-2.86,4.89-4.56,11.216-4.586,16.889-.305,67.45-.244,134.903-.1,202.354.014,6.603-.453,13.557-8.168,13.661-8.067.109-10.15-6.579-9.332-13.946.178-1.605-.259-3.304.056-4.865,3.978-19.714-5.417-31.304-21.171-42.434-40.28-28.455-33.969-18.086-34.4-66.982-.053-6.032-.007-12.064-.007-21.299Z"/>
  <path class="cls-1" d="M544.641,572.971c-23.197-10.685-45.095-21.025-67.284-30.696-3.048-1.328-7.692.162-11.343,1.223-10.318,2.999-20.359-1.058-24.422-10.335-3.892-8.887-.416-19.112,8.245-24.254,8.648-5.135,19.278-2.405,25.731,6.267,2.299,3.09,4.803,6.718,8.081,8.278,24.112,11.474,48.444,22.485,73.534,34.023,10.226-11.47,21.781-24.43,33.335-37.39,1.201.771,2.402,1.541,3.603,2.312-1.895-1.787-3.566-3.924-5.72-5.308-30.987-19.907-64.283-34.556-100.183-42.929-3.853-.899-8.577.156-12.465,1.528-10.8,3.811-19.975,1.012-25.046-8.376-4.908-9.085-1.984-19.704,7.001-25.431,8.737-5.568,18.406-3.248,25.962,5.348,2.975,3.384,7.005,6.92,11.175,8.006,41.674,10.85,80.16,28.452,116.291,53.896,5.402-3.661,10.639-8.263,16.696-11.139,29.966-14.229,60.189-27.916,90.211-42.031,4.429-2.082,9.058-4.732,12.214-8.33,7.771-8.86,16.789-11.348,25.778-5.908,8.667,5.244,11.935,16.941,7.144,25.567-5.02,9.038-14.83,11.904-25.212,8.443-4.167-1.389-9.428-1.869-13.56-.64-79.218,23.555-140.918,70.31-184.443,140.658-1.991,3.219-2.406,8.133-1.899,12.043,1.606,12.407-3.486,22.168-14.442,24.637-10.229,2.305-17.45-2.71-21.806-11.512-4.71-9.517-.117-19.23,10.409-25.364,3.91-2.279,7.6-5.602,10.233-9.277,7.067-9.863,13.509-20.173,22.184-33.31ZM468.265,469.141c3.127-5.659,6.245-8.805,6.048-11.727-.16-2.374-5.006-6.715-6.521-6.235-3.063.971-6.997,4.423-7.325,7.231-.293,2.506,3.786,5.523,7.798,10.732ZM520.289,622.869c-4.036,4.911-8.316,7.891-8.044,10.371.315,2.866,4.276,6.449,7.377,7.428,1.592.502,6.574-3.854,6.75-6.255.215-2.928-3.01-6.109-6.084-11.545ZM745.763,447.434c-3.43,5.396-7.286,8.82-6.795,11.425.501,2.657,5.085,5.734,8.253,6.222,1.711.264,6.008-4.602,5.874-6.97-.166-2.95-3.698-5.71-7.332-10.678ZM470.289,525.186c-5.32-3.205-8.37-6.441-11.381-6.405-2.323.028-6.788,4.645-6.409,6.366.666,3.027,4.175,7.348,6.736,7.521,2.789.188,5.855-3.728,11.054-7.482Z"/>
  <path class="cls-1" d="M600.115,654.386c2.493,12.539-4.134,21.858-14.366,22.983-10.243,1.126-17.306-3.897-20.688-13.299-3.657-10.165,1.736-19.566,12.518-24.42,4.19-1.887,8.831-4.23,11.551-7.707,36.035-46.081,81.143-80.174,134.52-103.825,5.608-2.485,10.523-7.664,14.411-12.645,6.573-8.423,16.839-11.872,25.675-6.658,8.634,5.094,12.477,12.623,8.978,22.646-3.531,10.114-12.514,14.345-23.201,12.665-5.131-.806-11.151-.462-15.896,1.485-50.636,20.781-92.746,53.073-126.879,95.75-2.979,3.725-4.45,8.655-6.621,13.026ZM754.264,514.679c-3.247,5.452-6.488,8.506-6.36,11.411.108,2.455,4.875,7.071,6.254,6.625,3.189-1.03,7.273-4.262,7.76-7.146.41-2.431-3.738-5.631-7.655-10.89ZM583.141,647.542c-3.51,5.107-7.424,8.33-7.053,10.947.381,2.687,4.707,6.071,7.774,6.642,1.788.333,6.379-4.304,6.314-6.609-.084-2.989-3.548-5.884-7.035-10.98Z"/>
  <path class="cls-1" d="M688.762,342.665c0,16.058.547,31.864-.291,47.596-.301,5.658-2.35,13.029-6.33,16.366-15.624,13.1-32.336,24.903-50.819,38.827,0-20.148-.489-37.387.318-54.565.222-4.726,3.169-10.694,6.835-13.649,15.099-12.172,30.939-23.426,46.59-34.904.656-.481,2.137.161,3.697.33Z"/>
  <path class="cls-1" d="M631.037,347.963c0-19.763-.592-35.954.324-52.059.316-5.557,2.933-12.654,7.003-16.03,15.429-12.802,31.885-24.367,49.841-37.805,0,19.991.415,37.597-.293,55.159-.175,4.356-2.918,9.901-6.31,12.613-15.663,12.523-31.972,24.239-50.565,38.123Z"/>
</svg>